<svg viewBox="0 0 24 24">
  <path d="M16.6 10.6c-1.1-1.1-2.5-1.8-4-1.8s-2.9.7-4 1.8c-1.1 1.1-1.8 2.5-1.8 4s.7 2.9 1.8 4c1.1 1.1 2.5 1.8 4 1.8s2.9-.7 4-1.8c1.1-1.1 1.8-2.5 1.8-4s-.7-2.9-1.8-4zM12 18c-2.2 0-4-1.8-4-4s1.8-4 4-4 4 1.8 4 4-1.8 4-4 4z" />
  <path d="M22.6 12.9c-.3-.9-1-1.6-1.9-1.9-.3-.1-.6-.2-.9-.2-.8 0-1.6.3-2.2.9-.6.6-.9 1.4-.9 2.2 0 .3 0 .6.1.9.3.9 1 1.6 1.9 1.9.3.1.6.2.9.2.8 0 1.6-.3 2.2-.9.6-.6.9-1.4.9-2.2 0-.3 0-.6-.1-.9zM20.7 10.7c.6.6.9 1.4.9 2.2s-.3 1.6-.9 2.2c-.6.6-1.4.9-2.2.9-.8 0-1.6-.3-2.2-.9-.6-.6-.9-1.4-.9-2.2s.3-1.6.9-2.2c.6-.6 1.4-.9 2.2-.9.8 0 1.6.3 2.2.9z" />
</svg>
